<?xml version="1.0" encoding="UTF-8" standalone="no"?>
<svg
   xmlns:dc="http://purl.org/dc/elements/1.1/"
   xmlns:cc="http://creativecommons.org/ns#"
   xmlns:rdf="http://www.w3.org/1999/02/22-rdf-syntax-ns#"
   xmlns:svg="http://www.w3.org/2000/svg"
   xmlns="http://www.w3.org/2000/svg"
   xmlns:sodipodi="http://sodipodi.sourceforge.net/DTD/sodipodi-0.dtd"
   xmlns:inkscape="http://www.inkscape.org/namespaces/inkscape"
   version="1.1"
   width="767.99988"
   height="576"
   id="svg2"
   inkscape:version="0.91 r13725"
   viewBox="0 0 767.99988 576"
   sodipodi:docname="logo.svg">
  <metadata
     id="metadata20">
    <rdf:RDF>
      <cc:Work
         rdf:about="">
        <dc:format>image/svg+xml</dc:format>
        <dc:type
           rdf:resource="http://purl.org/dc/dcmitype/StillImage" />
        <dc:title></dc:title>
      </cc:Work>
    </rdf:RDF>
  </metadata>
  <defs
     id="defs18" />
  <sodipodi:namedview
     pagecolor="#ffffff"
     bordercolor="#666666"
     borderopacity="1"
     objecttolerance="10"
     gridtolerance="10"
     guidetolerance="10"
     inkscape:pageopacity="0"
     inkscape:pageshadow="2"
     inkscape:window-width="1366"
     inkscape:window-height="744"
     id="namedview16"
     showgrid="false"
     inkscape:zoom="0.77604179"
     inkscape:cx="428.10292"
     inkscape:cy="421.88731"
     inkscape:window-x="0"
     inkscape:window-y="24"
     inkscape:window-maximized="1"
     inkscape:current-layer="svg2" />
  <g
     id="g4175"
     inkscape:export-xdpi="90"
     inkscape:export-ydpi="90">
    <g
       id="g4165">
      <g
         id="g4156">
        <g
           id="g4148">
          <path
             d="m 646.9502,235.4061 c 0,82.8625 -67.1848,150.0473 -150.0517,150.0473 -82.8619,0 -150.0467,-67.1848 -150.0467,-150.0473 0,-82.7334 66.9739,-149.8302 149.6548,-150.0424 l 0.7838,0 c 82.6859,0.2122 149.6598,67.309 149.6598,150.0424 z"
             style="fill:#40b1bc;fill-rule:evenodd"
             id="path4"
             inkscape:connector-curvature="0" />
          <path
             d="m 320.1881,180.7743 c 0,5.0905 -3.7856,9.2268 -8.4711,9.2268 l -196.814,0 c -4.6842,0 -8.4822,-4.1363 -8.4822,-9.2268 l 0,0 c 0,-5.0986 3.798,-9.2355 8.4822,-9.2355 l 196.814,0 c 4.6855,0 8.4711,4.1369 8.4711,9.2355 l 0,0 z"
             style="fill:#40b1bc;fill-rule:evenodd"
             id="path6"
             inkscape:connector-curvature="0" />
          <path
             d="m 320.1881,235.3998 c 0,5.1005 -3.7856,9.2331 -8.4711,9.2331 l -153.5083,0 c -4.6749,0 -8.4754,-4.1326 -8.4754,-9.2331 l 0,0 c 0,-5.0879 3.8005,-9.2136 8.4754,-9.2136 l 153.5083,0 c 4.6855,0 8.4711,4.1257 8.4711,9.2136 l 0,0 z"
             style="fill:#40b1bc;fill-rule:evenodd"
             id="path8"
             inkscape:connector-curvature="0" />
          <path
             d="m 320.1881,290.0335 c 0,5.1117 -3.7856,9.2399 -8.4711,9.2399 l -110.2083,0 c -4.6849,0 -8.4842,-4.1282 -8.4842,-9.2399 l 0,0 c 0,-5.0768 3.7993,-9.2137 8.4842,-9.2137 l 110.2083,0 c 4.6855,0 8.4711,4.1369 8.4711,9.2137 l 0,0 z"
             style="fill:#40b1bc;fill-rule:evenodd"
             id="path10"
             inkscape:connector-curvature="0" />
          <path
             d="m 617.2866,269.332 -245.0754,0 c 4.3853,3.2296 17.9537,11.3998 37.4045,13.9953 0.0768,2.4856 0.8188,4.4583 1.748,4.4583 l 166.7704,0 c 0.9286,0 1.6706,-1.9727 1.748,-4.4689 19.4396,-2.5849 32.9923,-10.7551 37.4045,-13.9847 z"
             style="fill:#ffffff;fill-rule:evenodd"
             id="path12"
             inkscape:connector-curvature="0" />
          <path
             d="m 502.0944,163.1976 c -0.0287,-5.5661 -3.3418,-10.1804 -7.3464,-10.1804 -3.994,0 -7.3159,4.6143 -7.3446,10.1804 -51.5801,3.5883 -92.9212,44.6542 -97.3839,96.4652 l 209.4632,0 c -4.4165,-51.811 -45.8082,-92.8769 -97.3883,-96.4652 z"
             style="fill:#ffffff;fill-rule:evenodd"
             id="path14"
             inkscape:connector-curvature="0" />
        </g>
      </g>
    </g>
  </g>
</svg>
